<svg width="24" height="25" viewBox="0 0 24 25" fill="none" xmlns="http://www.w3.org/2000/svg">
<g clip-path="url(#clip0_4392_11798)">
<path d="M24 0.5H0V24.5H24V0.5Z" fill="#F78422"/>
<path d="M15.6001 8.88181C12.3475 5.62921 8.01973 3.83789 3.41406 3.83789V7.22663C7.11456 7.22663 10.5913 8.66542 13.2039 11.278C15.8165 13.8906 17.2553 17.3674 17.2553 21.0679H20.6441C20.644 16.4622 18.8527 12.1344 15.6001 8.88181Z" fill="white"/>
<path d="M3.37891 9.57227V12.961C7.84896 12.961 11.4857 16.5977 11.4857 21.0678H14.8744C14.8744 14.7291 9.71759 9.57227 3.37891 9.57227Z" fill="white"/>
<path d="M5.78454 21.1618C7.125 21.1618 8.21165 20.0752 8.21165 18.7347C8.21165 17.3943 7.125 16.3076 5.78454 16.3076C4.44408 16.3076 3.35742 17.3943 3.35742 18.7347C3.35742 20.0752 4.44408 21.1618 5.78454 21.1618Z" fill="white"/>
</g>
<defs>
<clipPath id="clip0_4392_11798">
<rect y="0.5" width="24" height="24" rx="8" fill="white"/>
</clipPath>
</defs>
</svg>
